<svg width="761" height="388" viewBox="0 0 761 388" fill="none" xmlns="http://www.w3.org/2000/svg">
<path d="M11.8828 343V240.625H45.3516C56.4609 240.625 64.8047 242.922 70.3828 247.516C76.0078 252.109 78.8203 258.906 78.8203 267.906C78.8203 272.688 77.4609 276.93 74.7422 280.633C72.0234 284.289 68.3203 287.125 63.6328 289.141C69.1641 290.688 73.5234 293.641 76.7109 298C79.9453 302.312 81.5625 307.469 81.5625 313.469C81.5625 322.656 78.5859 329.875 72.6328 335.125C66.6797 340.375 58.2656 343 47.3906 343H11.8828ZM25.3828 295.117V331.961H47.6719C53.9531 331.961 58.8984 330.344 62.5078 327.109C66.1641 323.828 67.9922 319.328 67.9922 313.609C67.9922 301.281 61.2891 295.117 47.8828 295.117H25.3828ZM25.3828 284.289H45.7734C51.6797 284.289 56.3906 282.812 59.9062 279.859C63.4688 276.906 65.25 272.898 65.25 267.836C65.25 262.211 63.6094 258.133 60.3281 255.602C57.0469 253.023 52.0547 251.734 45.3516 251.734H25.3828V284.289ZM200.883 240.625L234.352 324.156L267.82 240.625H285.328V343H271.828V303.133L273.094 260.102L239.484 343H229.148L195.609 260.312L196.945 303.133V343H183.445V240.625H200.883ZM451.055 343H437.555V240.625H451.055V343ZM554.484 343H540.914L489.375 264.109V343H475.805V240.625H489.375L541.055 319.867V240.625H554.484V343ZM751.711 295.117C751.711 305.148 750.023 313.914 746.648 321.414C743.273 328.867 738.492 334.562 732.305 338.5C726.117 342.438 718.898 344.406 710.648 344.406C702.586 344.406 695.438 342.438 689.203 338.5C682.969 334.516 678.117 328.867 674.648 321.555C671.227 314.195 669.469 305.688 669.375 296.031V288.648C669.375 278.805 671.086 270.109 674.508 262.562C677.93 255.016 682.758 249.25 688.992 245.266C695.273 241.234 702.445 239.219 710.508 239.219C718.711 239.219 725.93 241.211 732.164 245.195C738.445 249.133 743.273 254.875 746.648 262.422C750.023 269.922 751.711 278.664 751.711 288.648V295.117ZM738.281 288.508C738.281 276.367 735.844 267.062 730.969 260.594C726.094 254.078 719.273 250.82 710.508 250.82C701.977 250.82 695.25 254.078 690.328 260.594C685.453 267.062 682.945 276.062 682.805 287.594V295.117C682.805 306.883 685.266 316.141 690.188 322.891C695.156 329.594 701.977 332.945 710.648 332.945C719.367 332.945 726.117 329.781 730.898 323.453C735.68 317.078 738.141 307.961 738.281 296.102V288.508Z" fill="#3F3D56"/>
<path d="M159.469 295.68H115.102V331.961H166.641V343H101.602V240.625H165.938V251.734H115.102V284.641H159.469V295.68ZM378.773 325.07L408.023 240.625H422.789L384.82 343H372.867L334.969 240.625H349.664L378.773 325.07ZM578.461 343V240.625H607.359C616.266 240.625 624.141 242.594 630.984 246.531C637.828 250.469 643.102 256.07 646.805 263.336C650.555 270.602 652.453 278.945 652.5 288.367V294.906C652.5 304.562 650.625 313.023 646.875 320.289C643.172 327.555 637.852 333.133 630.914 337.023C624.023 340.914 615.984 342.906 606.797 343H578.461ZM591.961 251.734V331.961H606.164C616.57 331.961 624.656 328.727 630.422 322.258C636.234 315.789 639.141 306.578 639.141 294.625V288.648C639.141 277.023 636.398 268 630.914 261.578C625.477 255.109 617.742 251.828 607.711 251.734H591.961Z" fill="#82D4A4"/>
<path d="M602.445 243.431C601.884 243.439 601.322 243.447 600.753 243.447C600.184 243.447 599.623 243.439 599.062 243.431C569.304 242.755 547.736 224.162 553.226 204.655L566.613 157.066L569.996 145.024L629.973 146.047L633.617 157.827L647.965 204.193C654.04 223.808 632.472 242.755 602.445 243.431Z" fill="#3F3D56"/>
<path opacity="0.2" d="M633.617 157.827C623.391 163.673 611.79 166.684 600.012 166.55C588.234 166.416 576.704 163.142 566.613 157.066L569.997 145.024L629.973 146.047L633.617 157.827Z" fill="black"/>
<path d="M631.086 206.233C633.677 196.577 642.192 182.648 666.073 165.854C707.72 136.559 682.876 114.594 681.799 113.674C679.541 111.744 679.874 109.576 682.575 108.835C684.143 108.522 685.761 108.547 687.319 108.91C688.877 109.273 690.34 109.964 691.609 110.938C692.957 112.054 724.068 138.621 677.072 171.672C634.777 201.422 643.769 220.842 643.873 221.028C645.006 223.105 643.189 224.767 639.81 224.744C636.431 224.722 632.77 223.022 631.633 220.947C631.394 220.508 628.673 215.223 631.086 206.233Z" fill="#3F3D56"/>
<path d="M573.072 250.367C572.163 250.367 571.264 250.188 570.424 249.84C569.584 249.493 568.821 248.983 568.179 248.34C567.536 247.698 567.026 246.935 566.679 246.095C566.331 245.255 566.152 244.356 566.152 243.447V213.459C566.152 211.623 566.881 209.863 568.179 208.565C569.477 207.267 571.237 206.538 573.072 206.538C574.908 206.538 576.668 207.267 577.966 208.565C579.263 209.863 579.992 211.623 579.992 213.459V243.447C579.993 244.356 579.814 245.255 579.466 246.095C579.118 246.935 578.608 247.698 577.966 248.34C577.323 248.983 576.56 249.493 575.721 249.84C574.881 250.188 573.981 250.367 573.072 250.367V250.367Z" fill="#3F3D56"/>
<path d="M579.14 179.174C578.76 180 578.221 180.742 577.554 181.36C576.887 181.977 576.105 182.457 575.253 182.772C574.401 183.088 573.495 183.232 572.586 183.197C571.678 183.162 570.786 182.948 569.96 182.568L542.717 170.034C541.052 169.266 539.76 167.868 539.125 166.147C538.489 164.427 538.563 162.524 539.33 160.858C540.096 159.192 541.493 157.898 543.213 157.261C544.933 156.624 546.835 156.696 548.502 157.46L575.745 169.995C576.571 170.374 577.314 170.913 577.931 171.58C578.549 172.247 579.029 173.029 579.344 173.881C579.659 174.734 579.803 175.64 579.768 176.548C579.733 177.456 579.52 178.348 579.14 179.174V179.174Z" fill="#3F3D56"/>
<path d="M622.367 179.174C622.747 179.999 623.286 180.742 623.952 181.36C624.619 181.977 625.401 182.457 626.254 182.772C627.106 183.087 628.012 183.232 628.92 183.197C629.828 183.162 630.721 182.948 631.546 182.568L658.789 170.034C660.457 169.267 661.751 167.869 662.388 166.147C663.024 164.426 662.951 162.522 662.184 160.855C661.416 159.187 660.018 157.893 658.297 157.256C656.575 156.62 654.672 156.693 653.004 157.46L625.761 169.995C624.936 170.374 624.193 170.913 623.576 171.58C622.958 172.247 622.478 173.029 622.163 173.881C621.848 174.734 621.704 175.64 621.739 176.548C621.774 177.456 621.987 178.348 622.367 179.174V179.174Z" fill="#3F3D56"/>
<path d="M628.435 250.367C629.343 250.367 630.243 250.188 631.083 249.84C631.922 249.493 632.685 248.983 633.328 248.34C633.971 247.698 634.48 246.935 634.828 246.095C635.176 245.255 635.355 244.356 635.355 243.447V213.459C635.355 211.623 634.626 209.863 633.328 208.565C632.03 207.267 630.27 206.538 628.435 206.538C626.599 206.538 624.839 207.267 623.541 208.565C622.243 209.863 621.514 211.623 621.514 213.459V243.447C621.514 244.356 621.693 245.255 622.041 246.095C622.389 246.935 622.898 247.698 623.541 248.34C624.184 248.983 624.947 249.493 625.786 249.84C626.626 250.188 627.526 250.367 628.435 250.367V250.367Z" fill="#3F3D56"/>
<path d="M657.356 56.2247C657.954 55.4714 658.385 54.6 658.622 53.6677C658.859 52.7355 658.895 51.7637 658.729 50.8163L654.963 28.6593L651.196 6.50229C650.993 5.30597 650.478 4.18425 649.704 3.24988C648.93 2.31551 647.923 1.60143 646.785 1.17939C645.648 0.757338 644.419 0.642209 643.223 0.845569C642.026 1.04893 640.904 1.56362 639.97 2.33789L622.665 16.6782L612.239 25.3177C605.286 24.0813 598.179 23.9741 591.192 25.0003L581.149 16.6782L563.844 2.33789C562.909 1.56362 561.787 1.04894 560.591 0.845584C559.395 0.642225 558.166 0.757354 557.028 1.1794C555.891 1.60145 554.884 2.31553 554.11 3.2499C553.335 4.18426 552.821 5.30599 552.617 6.50231L548.851 28.6593L545.085 50.8163C544.884 51.9808 544.987 53.1776 545.386 54.29C538.931 64.1851 535.246 75.629 534.713 87.4312C534.18 99.2334 536.819 110.963 542.356 121.399C547.893 131.836 556.125 140.598 566.196 146.775C576.267 152.952 587.809 156.317 599.621 156.521C611.434 156.725 623.085 153.76 633.363 147.935C643.642 142.11 652.171 133.638 658.065 123.399C663.959 113.16 667.002 101.528 666.877 89.7147C666.752 77.9012 663.465 66.3369 657.356 56.2247V56.2247Z" fill="#3F3D56"/>
<path d="M562.109 11.4175C561.699 11.4181 561.292 11.4919 560.908 11.6356C560.342 11.8414 559.842 12.194 559.458 12.6571C559.074 13.1203 558.82 13.6773 558.723 14.2709L554.156 41.1405C554.055 41.7328 554.112 42.3412 554.321 42.9044C554.53 43.4677 554.884 43.9661 555.346 44.3494C555.809 44.7327 556.364 44.9875 556.957 45.0882C557.549 45.1888 558.157 45.1318 558.721 44.9228L584.274 35.4434C584.837 35.2344 585.335 34.8809 585.719 34.4184C586.102 33.9559 586.357 33.4006 586.457 32.8084C586.558 32.2162 586.501 31.6079 586.292 31.0447C586.083 30.4815 585.73 29.9832 585.267 29.5999L585.267 29.5991L564.281 12.2093C563.672 11.6992 562.904 11.419 562.109 11.4175V11.4175Z" fill="#E6E6E6"/>
<path d="M641.704 11.4175C640.91 11.419 640.141 11.6992 639.532 12.2093L618.547 29.5999C618.084 29.9832 617.731 30.4815 617.522 31.0447C617.313 31.6079 617.256 32.2162 617.357 32.8084C617.457 33.4006 617.712 33.9559 618.095 34.4184C618.479 34.8809 618.977 35.2344 619.54 35.4434L645.093 44.9228C645.657 45.1318 646.265 45.1888 646.857 45.0882C647.449 44.9875 648.005 44.7327 648.467 44.3494C648.93 43.9661 649.284 43.4677 649.493 42.9044C649.702 42.3412 649.759 41.7328 649.658 41.1405L645.091 14.2709C644.993 13.6773 644.74 13.1203 644.356 12.6571C643.972 12.194 643.472 11.8414 642.906 11.6356C642.522 11.4919 642.115 11.4181 641.704 11.4175Z" fill="#E6E6E6"/>
<path d="M600.753 108.885C605.849 108.885 609.981 104.754 609.981 99.6578C609.981 94.5618 605.849 90.4307 600.753 90.4307C595.657 90.4307 591.526 94.5618 591.526 99.6578C591.526 104.754 595.657 108.885 600.753 108.885Z" fill="#E6E6E6"/>
<path d="M600.753 97.3508C604.151 97.3508 606.905 96.3181 606.905 95.0441C606.905 93.7701 604.151 92.7373 600.753 92.7373C597.356 92.7373 594.602 93.7701 594.602 95.0441C594.602 96.3181 597.356 97.3508 600.753 97.3508Z" fill="#3F3D56"/>
<path d="M596.14 105.04H604.598V115.421C604.598 115.976 604.489 116.526 604.276 117.039C604.064 117.552 603.752 118.018 603.359 118.411C602.967 118.804 602.5 119.115 601.987 119.328C601.474 119.54 600.924 119.65 600.369 119.65V119.65C599.247 119.65 598.172 119.204 597.379 118.411C596.585 117.618 596.14 116.542 596.14 115.421V105.04H596.14Z" fill="#FF6584"/>
<path d="M601.267 0.379639C600.823 1.2994 600.393 2.22912 599.988 3.17784C595.216 14.307 593.606 26.5369 595.337 38.5217C596.202 37.2656 597.112 35.957 598.038 34.6339C596.056 23.1316 597.17 11.309 601.267 0.379639V0.379639Z" fill="#3F3D56"/>
<path d="M608.187 8.83765C607.744 9.75741 607.313 10.6871 606.908 11.6358C602.136 22.765 600.527 34.9949 602.257 46.9797C603.123 45.7237 604.033 44.415 604.958 43.092C602.976 31.5896 604.091 19.767 608.187 8.83765V8.83765Z" fill="#3F3D56"/>
<path d="M629.523 174.889L628.548 162.491L627.573 150.093C627.521 149.423 627.293 148.779 626.912 148.226C626.532 147.673 626.013 147.229 625.407 146.94C624.801 146.651 624.129 146.526 623.46 146.579C622.79 146.632 622.147 146.86 621.593 147.24L611.344 154.283L603.859 159.426C603.381 158.866 602.786 158.417 602.118 158.108C601.449 157.8 600.721 157.64 599.984 157.64C599.248 157.64 598.52 157.8 597.851 158.108C597.182 158.417 596.588 158.866 596.11 159.426L588.625 154.283L578.376 147.24C577.822 146.859 577.179 146.632 576.509 146.579C575.84 146.526 575.168 146.651 574.562 146.94C573.956 147.229 573.437 147.673 573.057 148.226C572.676 148.779 572.448 149.423 572.396 150.093L571.421 162.491L570.446 174.889C570.393 175.558 570.518 176.23 570.807 176.836C571.096 177.442 571.54 177.961 572.093 178.341C572.646 178.722 573.29 178.949 573.96 179.002C574.629 179.055 575.3 178.93 575.906 178.641L587.131 173.286L596.354 168.887C596.828 169.367 597.393 169.749 598.017 170.01C598.64 170.27 599.309 170.405 599.984 170.405C600.66 170.405 601.329 170.27 601.952 170.01C602.575 169.749 603.141 169.367 603.615 168.887L612.838 173.286L624.062 178.641C624.668 178.93 625.34 179.055 626.009 179.002C626.679 178.95 627.322 178.722 627.876 178.341C628.429 177.961 628.873 177.442 629.162 176.836C629.451 176.23 629.576 175.558 629.523 174.889V174.889Z" fill="#82D4A4"/>
<path d="M588.451 91.9685C589.725 91.9685 590.757 90.9357 590.757 89.6618C590.757 88.3878 589.725 87.355 588.451 87.355C587.177 87.355 586.144 88.3878 586.144 89.6618C586.144 90.9357 587.177 91.9685 588.451 91.9685Z" fill="#E6E6E6"/>
<path d="M613.056 91.9685C614.33 91.9685 615.363 90.9357 615.363 89.6618C615.363 88.3878 614.33 87.355 613.056 87.355C611.782 87.355 610.75 88.3878 610.75 89.6618C610.75 90.9357 611.782 91.9685 613.056 91.9685Z" fill="#E6E6E6"/>
<path d="M154.426 243.052C154.987 243.059 155.548 243.067 156.117 243.067C156.686 243.067 157.247 243.059 157.809 243.052C187.566 242.375 209.135 223.783 203.644 204.275L190.257 156.686L186.874 144.645L126.898 145.667L123.253 157.447L108.905 203.814C102.831 223.429 124.399 242.375 154.426 243.052Z" fill="#3F3D56"/>
<path opacity="0.2" d="M123.253 157.447C133.479 163.293 145.08 166.304 156.859 166.17C168.637 166.037 180.166 162.763 190.257 156.686L186.874 144.645L126.898 145.667L123.253 157.447Z" fill="black"/>
<path d="M118.5 200.213C112.026 192.595 98.3696 183.649 69.5994 178.688C19.422 170.032 32.4785 139.548 33.0577 138.256C34.273 135.545 33.044 133.728 30.2864 134.214C28.7344 134.602 27.2831 135.317 26.03 136.312C24.7769 137.306 23.7509 138.557 23.0208 139.981C22.2793 141.566 5.52879 178.891 62.1479 188.653C113.105 197.444 113.287 218.844 113.273 219.056C113.138 221.419 115.491 222.143 118.536 220.677C121.58 219.211 124.161 216.108 124.301 213.746C124.329 213.247 124.527 207.305 118.5 200.213Z" fill="#3F3D56"/>
<path d="M183.798 249.987C184.707 249.987 185.607 249.808 186.447 249.461C187.286 249.113 188.049 248.603 188.692 247.961C189.334 247.318 189.844 246.555 190.192 245.715C190.54 244.876 190.719 243.976 190.719 243.067V213.079C190.716 211.245 189.986 209.487 188.689 208.191C187.391 206.895 185.632 206.167 183.798 206.167C181.964 206.167 180.205 206.895 178.908 208.191C177.61 209.487 176.88 211.245 176.878 213.079V243.067C176.878 243.976 177.057 244.876 177.405 245.715C177.752 246.555 178.262 247.318 178.905 247.961C179.547 248.603 180.31 249.113 181.15 249.461C181.99 249.808 182.889 249.987 183.798 249.987V249.987Z" fill="#3F3D56"/>
<path d="M177.731 178.794C178.111 179.62 178.649 180.363 179.316 180.98C179.983 181.598 180.765 182.078 181.617 182.393C182.47 182.708 183.376 182.852 184.284 182.817C185.192 182.782 186.084 182.569 186.91 182.189L214.153 169.655C214.98 169.275 215.723 168.737 216.342 168.07C216.96 167.403 217.441 166.621 217.757 165.768C218.073 164.915 218.217 164.009 218.182 163.1C218.148 162.191 217.934 161.298 217.554 160.472C217.174 159.646 216.635 158.903 215.967 158.285C215.3 157.668 214.517 157.188 213.664 156.873C212.811 156.558 211.904 156.414 210.995 156.45C210.087 156.485 209.194 156.7 208.368 157.081L181.125 169.615C180.299 169.995 179.557 170.534 178.939 171.201C178.322 171.867 177.842 172.649 177.527 173.502C177.212 174.354 177.067 175.26 177.102 176.168C177.137 177.076 177.351 177.969 177.731 178.794V178.794Z" fill="#3F3D56"/>
<path d="M134.503 178.794C134.124 179.62 133.585 180.363 132.918 180.98C132.251 181.598 131.469 182.078 130.617 182.393C129.764 182.708 128.858 182.852 127.95 182.817C127.042 182.782 126.15 182.569 125.324 182.189L98.0811 169.655C97.2545 169.275 96.5108 168.737 95.8925 168.07C95.2741 167.403 94.7933 166.621 94.4774 165.768C94.1616 164.915 94.0169 164.009 94.0517 163.1C94.0865 162.191 94.3 161.298 94.6801 160.472C95.0602 159.646 95.5994 158.903 96.2669 158.285C96.9344 157.668 97.7171 157.188 98.5702 156.873C99.4233 156.558 100.33 156.414 101.239 156.45C102.148 156.485 103.04 156.7 103.866 157.081L131.109 169.615C131.935 169.995 132.677 170.534 133.295 171.201C133.912 171.867 134.392 172.649 134.707 173.502C135.023 174.354 135.167 175.26 135.132 176.168C135.097 177.076 134.883 177.969 134.503 178.794Z" fill="#3F3D56"/>
<path d="M128.436 249.987C127.527 249.987 126.627 249.808 125.787 249.461C124.948 249.113 124.185 248.603 123.542 247.961C122.9 247.318 122.39 246.555 122.042 245.715C121.694 244.876 121.515 243.976 121.515 243.067V213.079C121.518 211.245 122.248 209.487 123.545 208.191C124.843 206.895 126.602 206.167 128.436 206.167C130.27 206.167 132.029 206.895 133.326 208.191C134.624 209.487 135.354 211.245 135.356 213.079V243.067C135.356 243.976 135.177 244.876 134.829 245.715C134.482 246.555 133.972 247.318 133.329 247.961C132.687 248.603 131.924 249.113 131.084 249.461C130.244 249.808 129.344 249.987 128.436 249.987V249.987Z" fill="#3F3D56"/>
<path d="M211.484 53.9104C211.883 52.798 211.987 51.6012 211.786 50.4367L208.02 28.2797L204.253 6.1227C204.05 4.92638 203.535 3.80465 202.761 2.87029C201.987 1.93592 200.98 1.22184 199.842 0.799793C198.705 0.377745 197.476 0.262602 196.279 0.465961C195.083 0.669319 193.961 1.18401 193.027 1.95829L175.722 16.2986L165.679 24.6207C158.692 23.5945 151.585 23.7017 144.632 24.9381L134.206 16.2985L116.9 1.95826C115.966 1.18398 114.844 0.66929 113.648 0.46593C112.452 0.26257 111.223 0.377699 110.085 0.799747C108.947 1.22179 107.941 1.93589 107.167 2.87026C106.392 3.80463 105.878 4.92634 105.674 6.12267L101.908 28.2797L98.1415 50.4367C97.9752 51.3841 98.0117 52.3559 98.2484 53.2881C98.4852 54.2204 98.9169 55.0918 99.515 55.8451C93.3982 65.9596 90.1039 77.5286 89.9749 89.3481C89.8459 101.168 92.8869 112.806 98.7815 123.051C104.676 133.297 113.209 141.776 123.492 147.605C133.775 153.434 145.432 156.401 157.25 156.197C169.069 155.993 180.617 152.625 190.692 146.444C200.767 140.263 209.002 131.494 214.539 121.051C220.076 110.608 222.714 98.8719 222.176 87.0639C221.639 75.2559 217.947 63.8076 211.484 53.9104H211.484Z" fill="#3F3D56"/>
<path d="M192.589 11.8299L171.604 29.2197L171.603 29.2205C171.141 29.6038 170.787 30.1021 170.578 30.6653C170.369 31.2285 170.312 31.8368 170.413 32.429C170.514 33.0212 170.769 33.5765 171.152 34.039C171.535 34.5016 172.033 34.855 172.597 35.064L198.15 44.5434C198.713 44.7524 199.322 44.8094 199.914 44.7087C200.506 44.6081 201.062 44.3533 201.524 43.97C201.987 43.5866 202.34 43.0883 202.549 42.525C202.758 41.9617 202.815 41.3534 202.715 40.7611L198.147 13.8915C198.05 13.2979 197.796 12.7409 197.412 12.2777C197.028 11.8146 196.528 11.462 195.963 11.2562C195.578 11.1125 195.171 11.0387 194.761 11.0381C193.967 11.0396 193.198 11.3198 192.589 11.8299V11.8299Z" fill="#E6E6E6"/>
<path d="M113.964 11.2562C113.399 11.462 112.899 11.8146 112.515 12.2777C112.131 12.7409 111.877 13.2979 111.78 13.8915L107.213 40.7611C107.112 41.3534 107.169 41.9617 107.378 42.525C107.587 43.0883 107.941 43.5866 108.403 43.97C108.866 44.3533 109.421 44.6081 110.013 44.7087C110.606 44.8094 111.214 44.7524 111.777 44.5434L137.331 35.064C137.894 34.855 138.392 34.5015 138.775 34.039C139.159 33.5765 139.413 33.0212 139.514 32.429C139.615 31.8368 139.558 31.2285 139.349 30.6653C139.14 30.1021 138.787 29.6038 138.324 29.2205L117.338 11.8299C116.729 11.3198 115.961 11.0396 115.166 11.0381C114.756 11.0387 114.349 11.1125 113.964 11.2562Z" fill="#E6E6E6"/>
<path d="M156.117 108.505C161.213 108.505 165.344 104.374 165.344 99.2781C165.344 94.1821 161.213 90.051 156.117 90.051C151.021 90.051 146.89 94.1821 146.89 99.2781C146.89 104.374 151.021 108.505 156.117 108.505Z" fill="#E6E6E6"/>
<path d="M156.117 96.9715C159.514 96.9715 162.268 95.9387 162.268 94.6647C162.268 93.3907 159.514 92.3579 156.117 92.3579C152.72 92.3579 149.966 93.3907 149.966 94.6647C149.966 95.9387 152.72 96.9715 156.117 96.9715Z" fill="#3F3D56"/>
<path d="M156.501 119.27C155.946 119.27 155.396 119.161 154.883 118.948C154.37 118.736 153.904 118.424 153.511 118.032C153.118 117.639 152.807 117.173 152.594 116.66C152.382 116.146 152.272 115.597 152.272 115.041V104.661H160.73V115.041C160.73 115.597 160.621 116.146 160.409 116.66C160.196 117.173 159.885 117.639 159.492 118.032C159.099 118.424 158.633 118.736 158.12 118.948C157.607 119.161 157.057 119.27 156.501 119.27V119.27Z" fill="#FF6584"/>
<path d="M155.604 0C156.047 0.91976 156.478 1.84947 156.883 2.79819C161.655 13.9273 163.264 26.1572 161.533 38.142C160.668 36.8859 159.758 35.5773 158.832 34.2543C160.814 22.7519 159.7 10.9294 155.604 0V0Z" fill="#3F3D56"/>
<path d="M148.683 8.45825C149.127 9.37802 149.558 10.3077 149.963 11.2564C154.735 22.3856 156.344 34.6155 154.613 46.6003C153.748 45.3442 152.838 44.0356 151.912 42.7125C153.894 31.2102 152.78 19.3876 148.683 8.45825V8.45825Z" fill="#3F3D56"/>
<path d="M127.347 39.9473L128.322 27.5493L129.297 15.1512C129.35 14.4818 129.578 13.838 129.958 13.2846C130.338 12.7312 130.858 12.2876 131.464 11.9985C132.07 11.7094 132.741 11.5849 133.411 11.6375C134.08 11.6902 134.724 11.9181 135.277 12.2984L145.527 19.3417L153.011 24.485C153.49 23.9249 154.084 23.4752 154.753 23.1668C155.422 22.8584 156.149 22.6988 156.886 22.6988C157.623 22.6988 158.35 22.8584 159.019 23.1668C159.688 23.4752 160.282 23.9249 160.761 24.485L168.245 19.3417L178.495 12.2984C179.048 11.9181 179.692 11.6902 180.361 11.6375C181.031 11.5849 181.702 11.7094 182.308 11.9985C182.914 12.2876 183.434 12.7312 183.814 13.2846C184.194 13.838 184.422 14.4818 184.475 15.1512L185.45 27.5493L186.425 39.9473C186.477 40.6167 186.353 41.2882 186.064 41.8943C185.774 42.5003 185.331 43.0196 184.778 43.3999C184.224 43.7801 183.58 44.0081 182.911 44.0607C182.242 44.1133 181.57 43.9888 180.964 43.6997L169.739 38.345L160.517 33.9452C160.042 34.426 159.477 34.8078 158.854 35.0684C158.23 35.329 157.562 35.4632 156.886 35.4632C156.21 35.4632 155.542 35.329 154.918 35.0684C154.295 34.8078 153.73 34.426 153.255 33.9452L144.033 38.345L132.808 43.6998C132.202 43.9889 131.531 44.1134 130.861 44.0608C130.192 44.0081 129.548 43.7802 128.995 43.3999C128.441 43.0196 127.998 42.5003 127.708 41.8943C127.419 41.2882 127.295 40.6168 127.347 39.9473V39.9473Z" fill="#82D4A4"/>
<path d="M166.113 89.2822C166.113 90.5562 167.146 89.2822 168.42 89.2822C169.694 89.2822 170.727 90.5562 170.727 89.2822C170.725 88.6712 170.482 88.0857 170.049 87.6541C169.617 87.2226 169.031 86.9802 168.42 86.9802C167.809 86.9802 167.223 87.2226 166.79 87.6541C166.358 88.0857 166.114 88.6712 166.113 89.2822V89.2822Z" fill="#E6E6E6"/>
<path d="M146.121 89.2822C146.121 90.5562 145.088 89.2822 143.814 89.2822C142.54 89.2822 141.507 90.5562 141.507 89.2822C141.509 88.6712 141.752 88.0857 142.185 87.6541C142.617 87.2226 143.203 86.9802 143.814 86.9802C144.425 86.9802 145.011 87.2226 145.444 87.6541C145.876 88.0857 146.12 88.6712 146.121 89.2822V89.2822Z" fill="#E6E6E6"/>
<path d="M256.076 159.379C261.046 159.379 265.076 155.35 265.076 150.379C265.076 145.409 261.046 141.379 256.076 141.379C251.105 141.379 247.076 145.409 247.076 150.379C247.076 155.35 251.105 159.379 256.076 159.379Z" fill="#FF6584"/>
<path d="M34.0757 239.379C39.0462 239.379 43.0757 235.35 43.0757 230.379C43.0757 225.409 39.0462 221.379 34.0757 221.379C29.1051 221.379 25.0757 225.409 25.0757 230.379C25.0757 235.35 29.1051 239.379 34.0757 239.379Z" fill="#82D4A4"/>
<path d="M212.076 388C217.046 388 221.076 383.971 221.076 379C221.076 374.029 217.046 370 212.076 370C207.105 370 203.076 374.029 203.076 379C203.076 383.971 207.105 388 212.076 388Z" fill="#FF6584"/>
<path d="M438.076 166.379C443.046 166.379 447.076 162.35 447.076 157.379C447.076 152.409 443.046 148.379 438.076 148.379C433.105 148.379 429.076 152.409 429.076 157.379C429.076 162.35 433.105 166.379 438.076 166.379Z" fill="#FF6584"/>
<path d="M703.076 380C708.046 380 712.076 375.971 712.076 371C712.076 366.029 708.046 362 703.076 362C698.105 362 694.076 366.029 694.076 371C694.076 375.971 698.105 380 703.076 380Z" fill="#82D4A4"/>
<path d="M712.076 195.379C717.046 195.379 721.076 191.35 721.076 186.379C721.076 181.409 717.046 177.379 712.076 177.379C707.105 177.379 703.076 181.409 703.076 186.379C703.076 191.35 707.105 195.379 712.076 195.379Z" fill="#FF6584"/>
<path d="M598.076 378C603.046 378 607.076 373.971 607.076 369C607.076 364.029 603.046 360 598.076 360C593.105 360 589.076 364.029 589.076 369C589.076 373.971 593.105 378 598.076 378Z" fill="#82D4A4"/>
</svg>
