<svg width="512" height="461" viewBox="0 0 512 461" fill="none" xmlns="http://www.w3.org/2000/svg">
<path d="M256 64C287.564 28.8715 332.508 8.72426 379.733 8.53334C452.983 8.53334 503.467 80.4182 503.467 163.166C503.467 246.212 451.285 389.231 256 452.267C60.7147 389.231 8.53333 246.212 8.53333 163.166C8.53333 80.4182 59.0165 8.53334 132.267 8.53334C179.492 8.72426 224.436 28.8715 256 64V64Z" fill="#CDEDDA"/>
<path d="M379.733 8.53334C374.664 8.53334 369.749 8.77227 364.962 9.19894C432.29 15.9147 477.867 84.5739 477.867 163.166C477.867 244.352 427.904 382.822 243.2 447.872C247.467 449.365 251.631 450.859 256 452.267C451.285 389.231 503.467 246.212 503.467 163.166C503.467 80.4182 452.983 8.53334 379.733 8.53334V8.53334Z" fill="#6FCF97"/>
<path d="M256 341.333C281.822 341.333 281.822 358.4 307.977 358.4C346.957 358.4 350.643 307.2 324.856 281.6C299.068 256 299.034 221.867 256 221.867C212.966 221.867 212.966 256 187.145 281.6C161.323 307.2 165.043 358.4 204.024 358.4C230.178 358.4 230.178 341.333 256 341.333Z" fill="#6FCF97"/>
<path d="M211.144 195.885C229.806 193.208 241.952 170.235 238.271 144.574C234.59 118.913 216.477 100.28 197.814 102.957C179.152 105.634 167.006 128.606 170.687 154.268C174.368 179.929 192.481 198.562 211.144 195.885Z" fill="#6FCF97"/>
<path d="M153.218 254.109C165.942 247.944 169.595 229.193 161.375 212.227C153.156 195.261 136.178 186.504 123.453 192.669C110.729 198.833 107.076 217.584 115.295 234.55C123.515 251.516 140.493 260.273 153.218 254.109Z" fill="#6FCF97"/>
<path d="M341.242 154.08C344.922 128.418 332.777 105.446 314.114 102.769C295.451 100.092 277.338 118.725 273.658 144.386C269.977 170.047 282.122 193.02 300.785 195.697C319.448 198.374 337.561 179.741 341.242 154.08Z" fill="#6FCF97"/>
<path d="M396.615 234.344C404.835 217.378 401.182 198.627 388.458 192.462C375.733 186.298 358.755 195.055 350.535 212.021C342.316 228.987 345.969 247.738 358.693 253.902C371.418 260.067 388.396 251.31 396.615 234.344Z" fill="#6FCF97"/>
<path d="M34.1333 163.166C34.1333 84.5739 79.7099 15.9147 147.038 9.19894C142.251 8.77227 137.335 8.53334 132.267 8.53334C59.0165 8.53334 8.53333 80.4182 8.53333 163.166C8.53333 244.352 58.4875 382.822 243.2 447.872C247.467 449.365 251.631 450.859 256 452.267C260.369 450.859 264.533 449.365 268.8 447.872C84.0875 382.822 34.1333 244.352 34.1333 163.166V163.166Z" fill="white"/>
<path d="M26.8629 228.096L10.4619 232.823C3.71389 210.212 0.191846 186.762 0 163.166H17.0667C17.2625 185.162 20.5604 207.021 26.8629 228.096V228.096Z" fill="white"/>
<path d="M11.4177 205.705C6.70483 205.728 2.86523 201.927 2.84166 197.214C2.8181 192.501 6.6195 188.661 11.3323 188.638H11.4177C16.1305 188.638 19.951 192.458 19.951 197.171C19.951 201.884 16.1305 205.705 11.4177 205.705Z" fill="#299876"/>
<path d="M379.733 0C333.321 0.107406 288.837 18.5789 256 51.3792C223.163 18.5789 178.679 0.107406 132.267 0C58.1035 0 0 71.68 0 163.166C0 167.879 3.8205 171.699 8.53333 171.699C13.2462 171.699 17.0667 167.879 17.0667 163.166C17.0667 81.2459 67.6693 17.0667 132.267 17.0667C176.875 17.4327 219.311 36.3807 249.361 69.3504C250.979 71.3606 253.42 72.5307 256 72.5333C258.58 72.5307 261.021 71.3606 262.639 69.3504C292.626 36.2925 335.102 17.3264 379.733 17.0667C444.331 17.0667 494.933 81.2459 494.933 163.166C494.428 201.374 485.208 238.962 467.977 273.067H458.044L443.127 235.759C441.852 232.574 438.793 230.463 435.362 230.4C431.946 230.39 428.837 232.369 427.401 235.469L402.202 292.173L390.101 255.932C396.136 251.185 401.007 245.123 404.343 238.208C409.055 228.836 410.625 218.197 408.823 207.863C407.249 198.02 401.1 189.507 392.252 184.917C375.287 176.7 353.178 187.255 342.929 208.418C332.681 229.581 338.082 253.491 355.021 261.7C358.863 263.555 363.077 264.509 367.343 264.491C369.807 264.451 372.258 264.128 374.647 263.526L392.977 318.43C394.089 321.771 397.14 324.086 400.657 324.258H401.067C404.44 324.259 407.497 322.272 408.866 319.189L434.782 260.864L444.339 284.757C445.632 288.003 448.773 290.133 452.267 290.133H458.82C423.253 351.215 359.066 409.335 256 443.238C204.066 426.74 155.959 400.012 114.517 364.629C92.9204 345.373 74.1471 323.166 58.752 298.667H68.2667C71.501 298.668 74.4583 296.841 75.904 293.948L84.8811 275.985L111.667 336.265C113.037 339.347 116.094 341.334 119.467 341.333C119.714 341.346 119.962 341.346 120.209 341.333C123.834 341.017 126.859 338.437 127.744 334.908L145.348 264.448C149.375 264.391 153.343 263.465 156.979 261.734C173.918 253.525 179.345 229.623 169.071 208.452C158.797 187.281 136.721 176.742 119.748 184.951C110.9 189.541 104.751 198.055 103.177 207.898C99.766 229.07 110.007 250.106 128.777 260.48L117.214 306.714L93.1499 252.57C91.8161 249.529 88.8401 247.539 85.5211 247.467C82.2108 247.361 79.1469 249.208 77.696 252.186L62.9931 281.6H48.8192C39.624 264.594 32.2639 246.659 26.8629 228.096C26.0185 225.166 23.6751 222.91 20.7156 222.176C17.7561 221.442 14.6301 222.344 12.5151 224.54C10.4001 226.736 9.61739 229.894 10.4619 232.823C15.377 249.635 21.818 265.961 29.7045 281.6H8.53333C3.8205 281.6 0 285.421 0 290.133C0 294.846 3.8205 298.667 8.53333 298.667H38.8693C56.0239 328.138 77.7404 354.704 103.211 377.378C147.135 414.931 198.231 443.17 253.397 460.382C254.238 460.654 255.116 460.795 256 460.8C256.892 460.797 257.778 460.659 258.628 460.39C372.625 423.586 441.728 358.135 478.353 290.133H503.467C508.18 290.133 512 286.313 512 281.6C512 276.887 508.18 273.067 503.467 273.067H486.895C503.007 238.643 511.567 201.171 512 163.166C512 71.68 453.897 0 379.733 0V0ZM362.47 246.349C354.142 242.313 352.23 228.352 358.272 215.868C361.899 206.847 370.084 200.463 379.716 199.142C381.487 199.123 383.239 199.511 384.836 200.277C388.803 202.573 391.487 206.573 392.107 211.115C393.166 217.818 392.088 224.685 389.026 230.741C382.933 243.2 370.782 250.385 362.47 246.349ZM123.008 230.758C119.946 224.702 118.868 217.835 119.927 211.132C120.547 206.59 123.231 202.59 127.198 200.294C128.795 199.528 130.547 199.14 132.318 199.159C141.95 200.48 150.135 206.864 153.762 215.885C159.812 228.369 157.892 242.338 149.564 246.366C141.235 250.394 129.067 243.2 123.008 230.758V230.758Z" fill="#299876"/>
<path d="M110.933 54.3659C111.784 54.3636 112.63 54.2342 113.442 53.9819C119.544 52.1232 125.888 51.1856 132.267 51.2C136.98 51.2 140.8 47.3795 140.8 42.6667C140.8 37.9538 136.98 34.1333 132.267 34.1333C124.188 34.1163 116.152 35.3071 108.425 37.6661C104.371 38.8948 101.832 42.9113 102.461 47.1003C103.09 51.2893 106.697 54.3825 110.933 54.3659V54.3659Z" fill="#299876"/>
<path d="M51.2 163.166C51.2 123.981 66.7136 85.9733 90.7264 66.3381C93.1401 64.4251 94.3356 61.36 93.8547 58.3179C93.3737 55.2758 91.2908 52.729 88.4047 51.6539C85.5186 50.5789 82.2771 51.1424 79.9232 53.1285C51.6778 76.2197 34.1333 118.391 34.1333 163.166C34.1333 167.879 37.9538 171.699 42.6666 171.699C47.3795 171.699 51.2 167.879 51.2 163.166Z" fill="#299876"/>
<path d="M199.313 250.795C194.296 259.758 188.194 268.069 181.146 275.541C163.614 292.911 157.699 318.848 165.965 342.101C172.083 357.627 187.349 367.587 204.023 366.933C215.131 367.104 225.982 363.597 234.888 356.958C247.377 347.508 264.623 347.508 277.111 356.958C286.018 363.597 296.869 367.104 307.977 366.933C324.649 367.589 339.914 357.632 346.035 342.11C354.301 318.856 348.386 292.92 330.854 275.55C323.806 268.078 317.704 259.766 312.687 250.803C301.406 232.38 289.749 213.333 256 213.333C222.251 213.333 210.594 232.38 199.313 250.795V250.795ZM298.129 259.712C303.852 269.847 310.809 279.234 318.839 287.659C331.32 300.248 335.72 318.757 330.24 335.616C326.756 344.742 317.723 350.524 307.977 349.867C300.195 350.045 292.595 347.507 286.481 342.69C268.3 329.504 243.7 329.504 225.519 342.69C219.405 347.507 211.805 350.045 204.023 349.867C194.274 350.528 185.236 344.745 181.751 335.616C176.273 318.755 180.677 300.247 193.161 287.659C201.191 279.234 208.148 269.847 213.871 259.712C224.674 242.057 231.817 230.4 256 230.4C280.183 230.4 287.326 242.057 298.129 259.712Z" fill="#299876"/>
<path d="M196.591 94.4299C173.321 97.7749 157.909 125.15 162.253 155.401C166.315 183.62 186.146 204.561 207.659 204.561C209.24 204.56 210.82 204.449 212.386 204.228C235.657 200.883 251.068 173.508 246.724 143.249C242.381 112.99 219.955 91.0763 196.591 94.4299V94.4299ZM209.92 187.341C196.071 189.38 182.076 173.568 179.115 152.977C176.154 132.386 185.259 113.297 198.989 111.326C212.907 109.346 226.833 125.107 229.794 145.69C232.755 166.272 223.684 185.37 209.92 187.341Z" fill="#299876"/>
<path d="M304.341 204.57C325.862 204.57 345.685 183.629 349.747 155.409C354.091 125.141 338.654 97.7835 315.409 94.4384C292.164 91.0934 269.636 112.998 265.276 143.275C260.915 173.551 276.369 200.9 299.614 204.245C301.18 204.463 302.76 204.571 304.341 204.57ZM282.155 145.69C284.954 126.259 297.66 111.155 310.613 111.155C311.399 111.157 312.183 111.214 312.96 111.326C326.69 113.297 335.795 132.369 332.834 152.977C329.873 173.585 315.631 189.38 302.029 187.341C288.316 185.37 279.219 166.298 282.172 145.69H282.155Z" fill="#299876"/>
</svg>
