<svg width="2967" height="2662" viewBox="0 0 2967 2662" fill="none" xmlns="http://www.w3.org/2000/svg">
<path fill-rule="evenodd" clip-rule="evenodd" d="M1408.12 118.789C1795.68 147.584 2207.7 96.3597 2488.61 364.918C2814.9 676.856 3063.77 1142.76 2930.18 1573.94C2802.32 1986.66 2293.74 2069.71 1903.2 2254.56C1518.31 2436.73 1124.58 2796.66 742.057 2609.59C360.315 2422.9 420.46 1887.6 312.449 1476.62C196.097 1033.91 -181.865 544.106 105.594 187.865C392.845 -168.118 951.939 84.8959 1408.12 118.789Z" fill="#6FCF97"/>
<path d="M1248.88 1295.32L1590.27 1575.79C1607.21 1589.79 1631.77 1589.79 1648.72 1575.79C1671.07 1557.37 1671.07 1522.99 1648.72 1504.82L1280.32 1202.24C1262.14 1187.25 1235.86 1187.25 1217.44 1202.24L849.29 1504.57C826.941 1522.99 826.941 1557.37 849.29 1575.55C866.237 1589.55 890.797 1589.55 907.743 1575.55L1248.88 1295.32Z" stroke="white" stroke-width="19" stroke-miterlimit="10" stroke-linecap="round" stroke-linejoin="round"/>
<path d="M1248.88 1295.32L968.406 1525.69L992.721 1990.12H1505.29L1529.36 1525.69L1248.88 1295.32Z" stroke="white" stroke-width="19" stroke-miterlimit="10" stroke-linecap="round" stroke-linejoin="round"/>
<path d="M1248.88 1594.21C1148.92 1594.21 1070.58 1661.26 1073.52 1741.57L1082.86 1990.12H1414.91L1424.24 1741.57C1427.19 1661.26 1348.84 1594.21 1248.88 1594.21Z" stroke="white" stroke-width="19" stroke-miterlimit="10" stroke-linecap="round" stroke-linejoin="round"/>
<path d="M1198.04 1512.67C1202.71 1523.48 1215.23 1528.39 1226.04 1523.97C1232.92 1521.27 1240.78 1519.55 1248.88 1519.55C1256.99 1519.55 1264.85 1521.02 1271.72 1523.97C1282.53 1528.39 1295.05 1523.48 1299.72 1512.67C1301.93 1507.52 1303.16 1501.87 1303.16 1496.22C1303.16 1470.19 1278.84 1449.31 1248.64 1449.31C1218.43 1449.31 1194.11 1470.43 1194.11 1496.22C1194.6 1502.11 1195.59 1507.52 1198.04 1512.67Z" stroke="white" stroke-width="19" stroke-miterlimit="10" stroke-linecap="round" stroke-linejoin="round"/>
<path d="M1193.43 1440.93C1201.75 1434.4 1204.02 1423.39 1198.49 1416.35C1192.97 1409.31 1181.74 1408.9 1173.42 1415.43C1165.09 1421.96 1162.83 1432.96 1168.35 1440.01C1173.88 1447.05 1185.11 1447.46 1193.43 1440.93Z" stroke="white" stroke-width="19" stroke-miterlimit="10" stroke-linecap="round" stroke-linejoin="round"/>
<path d="M1248.88 1423.03C1262.72 1423.03 1273.93 1415.44 1273.93 1406.08C1273.93 1396.72 1262.72 1389.14 1248.88 1389.14C1235.05 1389.14 1223.83 1396.72 1223.83 1406.08C1223.83 1415.44 1235.05 1423.03 1248.88 1423.03Z" stroke="white" stroke-width="19" stroke-miterlimit="10" stroke-linecap="round" stroke-linejoin="round"/>
<path d="M1323.47 1446.6C1329 1439.56 1326.73 1428.55 1318.41 1422.02C1310.09 1415.49 1298.86 1415.9 1293.34 1422.95C1287.81 1429.99 1290.07 1440.99 1298.4 1447.52C1306.72 1454.05 1317.95 1453.64 1323.47 1446.6Z" stroke="white" stroke-width="19" stroke-miterlimit="10" stroke-linecap="round" stroke-linejoin="round"/>
<path d="M592.638 1997H620.882" stroke="#00354C" stroke-width="6" stroke-miterlimit="10" stroke-linecap="round" stroke-linejoin="round"/>
<path d="M1345.89 1607.96C1353.02 1565.23 1369.96 1516.11 1390.1 1475.1C1362.1 1520.78 1336.81 1585.86 1327.72 1640.88C1313.72 1724.62 1318.39 1801.5 1339.75 1850.37L1352.52 1804.2C1335.82 1755.32 1333.12 1684.59 1345.89 1607.96Z" fill="#D1D1D1"/>
<path d="M756.945 1186.52C686.703 1181.6 684.247 1262.65 696.527 1316.68C701.439 1346.16 669.511 1363.35 655.021 1385.94C648.881 1395.77 643.232 1407.31 640.285 1422.05C632.18 1461.1 655.266 1494.25 658.95 1529.86C659.933 1538.71 659.687 1547.79 657.477 1557.13C654.775 1567.2 649.863 1577.02 644.951 1586.84C605.655 1631.05 541.799 1682.63 586.007 1741.57C594.112 1751.89 602.953 1760.97 612.532 1769.08C689.159 1834.9 804.591 1829.99 893.007 1788.24C924.935 1771.04 956.863 1746.48 964.231 1709.64C969.143 1670.35 951.951 1633.51 925.672 1607.47C917.813 1598.88 909.217 1590.77 900.375 1583.65C893.989 1573.83 890.06 1564.49 888.095 1555.41C883.429 1532.81 890.551 1511.69 897.428 1490.32C900.866 1479.76 904.059 1468.96 905.778 1457.9C915.111 1402.4 861.079 1368.01 831.607 1328.72C819.327 1311.53 824.239 1289.42 829.151 1269.77C838.975 1223.11 802.135 1183.81 758.173 1186.27" fill="#299876"/>
<path d="M767.997 1419.1C756.699 1472.39 754.243 1524.71 755.717 1577.02C756.208 1590.04 789.855 1807.88 768.242 1903.18C767.751 1916.93 767.751 1925.03 767.751 1925.03" stroke="#00354C" stroke-width="6" stroke-miterlimit="10" stroke-linecap="round" stroke-linejoin="round"/>
<path d="M804.591 1625.16L767.997 1677.96" stroke="#00354C" stroke-width="6" stroke-miterlimit="10" stroke-linecap="round" stroke-linejoin="round"/>
<path d="M826.695 2004.36H713.719C712.245 2004.36 711.017 2003.38 710.772 2001.91L681.791 1879.6H858.623L829.642 2002.15C829.397 2003.38 828.169 2004.36 826.695 2004.36Z" fill="#F7BF46"/>
<path opacity="0.68" d="M699.474 1947.38H840.94" stroke="#F7BF46" stroke-miterlimit="10"/>
<path opacity="0.68" d="M701.685 1956.23H838.729" stroke="#F7BF46" stroke-miterlimit="10"/>
<path d="M1366.03 1969.49V1996.5" stroke="#00354C" stroke-width="6" stroke-miterlimit="10" stroke-linecap="round" stroke-linejoin="round"/>
<path d="M597.059 1560.81C611.573 1560.81 623.338 1541.68 623.338 1518.08C623.338 1494.47 611.573 1475.34 597.059 1475.34C582.546 1475.34 570.78 1494.47 570.78 1518.08C570.78 1541.68 582.546 1560.81 597.059 1560.81Z" fill="#01D392"/>
<path d="M2109.98 1734.27L2085.66 1709.96L2061.35 1734.27L2085.66 1758.59L2109.98 1734.27Z" fill="#01D392"/>
<path d="M1937.21 1022.61L1921.58 1006.98L1905.95 1022.61L1921.58 1038.24L1937.21 1022.61Z" fill="#01D392"/>
<path d="M687.44 700.473V735.594" stroke="#00354C" stroke-width="3" stroke-miterlimit="10" stroke-linecap="round" stroke-linejoin="round"/>
<path d="M687.44 780.047V815.168" stroke="#00354C" stroke-width="3" stroke-miterlimit="10" stroke-linecap="round" stroke-linejoin="round"/>
<path d="M637.583 729.208L668.038 746.646" stroke="#00354C" stroke-width="3" stroke-miterlimit="10" stroke-linecap="round" stroke-linejoin="round"/>
<path d="M706.842 768.995L737.297 786.433" stroke="#00354C" stroke-width="3" stroke-miterlimit="10" stroke-linecap="round" stroke-linejoin="round"/>
<path d="M637.583 786.433L668.038 768.995" stroke="#00354C" stroke-width="3" stroke-miterlimit="10" stroke-linecap="round" stroke-linejoin="round"/>
<path d="M706.842 746.646L737.297 729.208" stroke="#00354C" stroke-width="3" stroke-miterlimit="10" stroke-linecap="round" stroke-linejoin="round"/>
<path d="M2224.9 850.534V874.849" stroke="#00354C" stroke-width="3" stroke-miterlimit="10" stroke-linecap="round" stroke-linejoin="round"/>
<path d="M2224.9 905.794V930.354" stroke="#00354C" stroke-width="3" stroke-miterlimit="10" stroke-linecap="round" stroke-linejoin="round"/>
<path d="M2190.51 870.428L2211.63 882.708" stroke="#00354C" stroke-width="3" stroke-miterlimit="10" stroke-linecap="round" stroke-linejoin="round"/>
<path d="M2238.4 898.181L2259.53 910.215" stroke="#00354C" stroke-width="3" stroke-miterlimit="10" stroke-linecap="round" stroke-linejoin="round"/>
<path d="M2190.51 910.215L2211.63 898.181" stroke="#00354C" stroke-width="3" stroke-miterlimit="10" stroke-linecap="round" stroke-linejoin="round"/>
<path d="M2238.4 882.708L2259.53 870.428" stroke="#00354C" stroke-width="3" stroke-miterlimit="10" stroke-linecap="round" stroke-linejoin="round"/>
<path d="M2036.77 1249.63C2057.25 1249.63 2073.85 1233.03 2073.85 1212.55C2073.85 1192.07 2057.25 1175.46 2036.77 1175.46C2016.28 1175.46 1999.68 1192.07 1999.68 1212.55C1999.68 1233.03 2016.28 1249.63 2036.77 1249.63Z" fill="#F7BF46"/>
<path d="M2036.77 1158.52V1188.23" stroke="#00354C" stroke-width="3" stroke-miterlimit="10" stroke-linecap="round" stroke-linejoin="round"/>
<path d="M2036.77 1236.62V1266.34" stroke="#00354C" stroke-width="3" stroke-miterlimit="10" stroke-linecap="round" stroke-linejoin="round"/>
<path d="M1990.1 1185.53L2015.89 1200.27" stroke="#00354C" stroke-width="3" stroke-miterlimit="10" stroke-linecap="round" stroke-linejoin="round"/>
<path d="M2057.89 1224.58L2083.68 1239.32" stroke="#00354C" stroke-width="3" stroke-miterlimit="10" stroke-linecap="round" stroke-linejoin="round"/>
<path d="M1990.1 1241.04L2015.89 1224.58" stroke="#00354C" stroke-width="3" stroke-miterlimit="10" stroke-linecap="round" stroke-linejoin="round"/>
<path d="M2057.89 1200.27L2083.68 1185.53" stroke="#00354C" stroke-width="3" stroke-miterlimit="10" stroke-linecap="round" stroke-linejoin="round"/>
<path d="M1481.71 417.05V453.154" stroke="#00354C" stroke-width="4" stroke-miterlimit="10" stroke-linecap="round" stroke-linejoin="round"/>
<path d="M1499.64 434.979H1463.78" stroke="#00354C" stroke-width="4" stroke-miterlimit="10" stroke-linecap="round" stroke-linejoin="round"/>
<path d="M2314.79 1679.93V1716.03" stroke="#00354C" stroke-width="4" stroke-miterlimit="10" stroke-linecap="round" stroke-linejoin="round"/>
<path d="M2332.71 1698.1H2296.61" stroke="#00354C" stroke-width="4" stroke-miterlimit="10" stroke-linecap="round" stroke-linejoin="round"/>
<path d="M1051.17 1043.58V1065.68" stroke="#00354C" stroke-width="4" stroke-miterlimit="10" stroke-linecap="round" stroke-linejoin="round"/>
<path d="M1062.23 1054.63H1040.12" stroke="#00354C" stroke-width="4" stroke-miterlimit="10" stroke-linecap="round" stroke-linejoin="round"/>
<path d="M965.674 1233.55L948.307 1216.19L930.941 1233.55L948.307 1250.92L965.674 1233.55Z" fill="#F7BF46"/>
<path d="M405 1130.03H469.838" stroke="#00354C" stroke-width="4" stroke-miterlimit="10" stroke-linecap="round" stroke-linejoin="round"/>
<path d="M491.942 1130.03H516.748" stroke="#00354C" stroke-width="4" stroke-miterlimit="10" stroke-linecap="round" stroke-linejoin="round"/>
<path d="M441.103 1161.46H512.818" stroke="#00354C" stroke-width="4" stroke-miterlimit="10" stroke-linecap="round" stroke-linejoin="round"/>
<path d="M1810.08 1434.33H1874.67" stroke="#00354C" stroke-width="4" stroke-miterlimit="10" stroke-linecap="round" stroke-linejoin="round"/>
<path d="M1896.77 1434.33H1921.58" stroke="#00354C" stroke-width="4" stroke-miterlimit="10" stroke-linecap="round" stroke-linejoin="round"/>
<path d="M1845.94 1460.6H1917.9" stroke="#00354C" stroke-width="4" stroke-miterlimit="10" stroke-linecap="round" stroke-linejoin="round"/>
<path d="M2008.52 1997H2109.96" stroke="#00354C" stroke-width="6" stroke-miterlimit="10" stroke-linecap="round" stroke-linejoin="round"/>
<path d="M672.458 1997H875.569" stroke="#00354C" stroke-width="6" stroke-miterlimit="10" stroke-linecap="round" stroke-linejoin="round"/>
<path d="M1890.63 1643.33C1891.13 1649.96 1891.37 1656.59 1891.37 1663.22C1891.37 1800.52 1780.85 1912.02 1644.54 1912.02C1530.09 1912.02 1433.82 1833.43 1405.82 1726.84C1415.89 1854.79 1522.23 1955.73 1651.91 1955.73C1788.22 1955.73 1898.74 1844.48 1898.74 1706.94C1898.98 1684.84 1896.04 1663.72 1890.63 1643.33Z" fill="white"/>
<path d="M1890.63 1643.33C1891.13 1649.96 1891.37 1656.59 1891.37 1663.22C1891.37 1800.52 1780.85 1912.02 1644.54 1912.02C1530.09 1912.02 1433.82 1833.43 1405.82 1726.84C1415.89 1854.79 1522.23 1955.73 1651.91 1955.73C1788.22 1955.73 1898.74 1844.48 1898.74 1706.94C1898.98 1684.84 1896.04 1663.72 1890.63 1643.33Z" stroke="#00354C" stroke-width="6" stroke-miterlimit="10" stroke-linecap="round" stroke-linejoin="round"/>
<path d="M1459.12 1419.84C1417.36 1401.17 1344.67 1538.71 1327.72 1640.88C1313.72 1724.62 1318.39 1801.5 1339.75 1850.37L1459.12 1419.84Z" fill="white"/>
<path d="M1459.12 1419.84C1417.36 1401.17 1344.67 1538.71 1327.72 1640.88C1313.72 1724.62 1318.39 1801.5 1339.75 1850.37L1459.12 1419.84Z" stroke="#00354C" stroke-width="6" stroke-miterlimit="10" stroke-linecap="round" stroke-linejoin="round"/>
<path d="M1587.81 1419.84C1629.56 1401.17 1702.26 1538.71 1719.21 1640.88C1733.2 1724.62 1728.54 1801.5 1707.17 1850.37L1587.81 1419.84Z" fill="white"/>
<path d="M1701.28 1607.96C1694.15 1565.23 1677.21 1516.11 1657.07 1475.1C1685.07 1520.78 1710.36 1585.86 1719.45 1640.88C1733.45 1724.62 1728.78 1801.5 1707.42 1850.37L1694.65 1804.2C1711.35 1755.32 1713.8 1684.59 1701.28 1607.96Z" fill="#D1D1D1"/>
<path d="M1587.81 1419.84C1629.56 1401.17 1702.26 1538.71 1719.21 1640.88C1733.2 1724.62 1728.54 1801.5 1707.17 1850.37L1587.81 1419.84Z" stroke="#00354C" stroke-width="6" stroke-miterlimit="10" stroke-linecap="round" stroke-linejoin="round"/>
<path d="M1714.54 1868.79C1711.84 1828.02 1605.74 1385.45 1577 1363.35H1525.18H1471.89C1443.15 1385.45 1336.81 1827.78 1334.35 1868.79C1331.16 1919.63 1314.46 1997 1410.98 1997H1525.18H1638.16C1734.43 1997 1717.73 1919.63 1714.54 1868.79Z" fill="white"/>
<path d="M1345.89 1806.16C1345.89 1806.16 1338.28 1871 1374.63 1894.83C1403.12 1913.74 1428.17 1921.35 1475.08 1929.95C1500.38 1934.61 1527.88 1936.58 1527.88 1936.58L1530.83 1994.78L1330.91 1996.26C1330.91 1996.26 1327.47 1914.47 1332.39 1889.91C1337.3 1865.6 1339.75 1824.83 1345.89 1806.16Z" fill="#D1D1D1"/>
<path d="M1704.96 1806.16C1704.96 1806.16 1712.57 1871 1676.23 1894.83C1647.74 1913.74 1622.68 1921.35 1575.78 1929.95C1550.48 1934.61 1522.97 1936.58 1522.97 1936.58L1520.02 1994.78L1719.94 1996.26C1719.94 1996.26 1723.38 1914.47 1718.47 1889.91C1713.56 1865.6 1711.1 1824.83 1704.96 1806.16Z" fill="#D1D1D1"/>
<path d="M1612.12 1452.5C1605.98 1450.78 1600.09 1449.8 1594.93 1449.8C1564.97 1449.8 1541.15 1465.76 1541.15 1502.6C1541.15 1539.69 1594.93 1583.65 1624.9 1583.65C1633 1583.65 1640.61 1581.44 1647.49 1577.51C1635.46 1532.32 1623.18 1488.6 1612.12 1452.5Z" fill="#F7BF46"/>
<path d="M1384.94 1770.8C1418.1 1770.8 1445.12 1738.13 1445.12 1697.85C1445.12 1659.3 1420.31 1627.61 1388.87 1625.16C1376.59 1673.29 1365.05 1720.94 1355.72 1761.46C1364.56 1767.36 1374.38 1770.8 1384.94 1770.8Z" fill="#F7BF46"/>
<path d="M1464.27 1373.91C1464.27 1373.91 1481.71 1387.91 1521.74 1387.91C1554.16 1387.91 1582.65 1373.91 1582.65 1373.91L1580.2 1364.33H1465.99L1464.27 1373.91Z" fill="#D1D1D1"/>
<path d="M1714.54 1868.79C1711.84 1828.02 1605.74 1385.45 1577 1363.35H1525.18H1471.89C1443.15 1385.45 1336.81 1827.78 1334.35 1868.79C1331.16 1919.63 1314.46 1997 1410.98 1997H1525.18H1638.16C1734.43 1997 1717.73 1919.63 1714.54 1868.79Z" stroke="#00354C" stroke-width="6" stroke-miterlimit="10" stroke-linecap="round" stroke-linejoin="round"/>
<path d="M1708.89 1186.52C1704.22 1138.62 1680.65 1017.54 1654.12 932.81C1611.88 797.485 1562.27 762.118 1533.53 758.434C1530.58 757.943 1524.2 757.943 1524.2 757.943C1524.2 757.943 1518.06 757.943 1514.87 758.434C1486.13 761.873 1436.77 796.994 1394.28 932.565C1367.75 1017.3 1344.42 1138.62 1339.51 1186.76C1328.95 1294.82 1380.77 1354.51 1448.06 1363.1C1467.22 1365.56 1505.04 1365.56 1524.2 1365.56C1543.11 1365.56 1580.93 1365.56 1600.34 1363.1C1667.38 1354.26 1719.45 1294.58 1708.89 1186.52Z" fill="white"/>
<path d="M1524.2 1285.49C1549.84 1285.49 1570.62 1269.11 1570.62 1248.9C1570.62 1228.69 1549.84 1212.3 1524.2 1212.3C1498.56 1212.3 1477.78 1228.69 1477.78 1248.9C1477.78 1269.11 1498.56 1285.49 1524.2 1285.49Z" fill="#D1D1D1"/>
<path d="M1481.71 772.188C1481.71 772.188 1459.61 855.446 1413.43 879.515C1425.22 852.99 1441.19 821.308 1441.19 821.308C1441.19 821.308 1468.69 775.872 1481.71 772.188Z" fill="#D1D1D1"/>
<path d="M1533.53 758.68C1533.53 758.68 1593.46 861.832 1643.32 901.374C1643.32 901.374 1632.02 828.185 1620.97 806.081C1609.91 783.977 1555.88 751.803 1533.53 758.68Z" fill="#D1D1D1"/>
<path d="M1406.31 1154.83C1502.83 1113.33 1560.55 1031.54 1535.01 972.352C1517.08 930.846 1463.04 911.443 1399.19 917.829C1397.72 922.495 1396 927.407 1394.52 932.565C1369.96 1011.16 1348.1 1120.94 1341.23 1174.73C1362.35 1170.8 1384.45 1164.41 1406.31 1154.83Z" fill="#F7BF46"/>
<path d="M1662.47 1267.32C1634.96 1307.35 1574.79 1334.37 1510.69 1334.37C1451.26 1334.37 1415.64 1299.49 1394.77 1256.02" stroke="#00354C" stroke-width="6" stroke-miterlimit="10" stroke-linecap="round" stroke-linejoin="round"/>
<path d="M1524.2 1272.48C1556.35 1272.48 1582.41 1259.06 1582.41 1242.51C1582.41 1225.96 1556.35 1212.55 1524.2 1212.55C1492.05 1212.55 1465.99 1225.96 1465.99 1242.51C1465.99 1259.06 1492.05 1272.48 1524.2 1272.48Z" fill="#00354C"/>
<path d="M1843.72 1981.52C1806.39 1946.4 1734.68 1928.96 1664.68 1934.37C1604.76 1938.79 1560.3 1959.17 1542.86 1986.19C1539.92 1990.86 1543.6 1997 1549.25 1997H1832.92C1843.97 1997 1850.6 1987.91 1843.72 1981.52Z" fill="white"/>
<path d="M1841.76 1981.03C1841.02 1981.28 1840.04 1981.52 1839.06 1981.52H1555.39C1551.95 1981.52 1549 1980.79 1546.79 1979.31C1546.06 1980.05 1545.08 1980.79 1544.34 1981.52C1537.46 1987.91 1544.09 1997 1555.39 1997H1839.06C1844.71 1997 1848.39 1990.61 1845.44 1986.19C1844.22 1984.22 1842.99 1982.5 1841.76 1981.03Z" fill="#D1D1D1"/>
<path d="M1843.72 1981.52C1806.39 1946.4 1734.68 1928.96 1664.68 1934.37C1604.76 1938.79 1560.3 1959.17 1542.86 1986.19C1539.92 1990.86 1543.6 1997 1549.25 1997H1832.92C1843.97 1997 1850.6 1987.91 1843.72 1981.52Z" stroke="#00354C" stroke-width="6" stroke-miterlimit="10" stroke-linecap="round" stroke-linejoin="round"/>
<path d="M1690.23 1969.49V1996.5" stroke="#00354C" stroke-width="6" stroke-miterlimit="10" stroke-linecap="round" stroke-linejoin="round"/>
<path d="M1212.78 1981.52C1250.11 1946.4 1321.82 1928.96 1391.82 1934.37C1451.75 1938.79 1496.2 1959.17 1513.64 1986.19C1516.59 1990.86 1512.9 1997 1507.25 1997H1223.58C1212.53 1997 1205.9 1987.91 1212.78 1981.52Z" fill="white"/>
<path d="M1510.2 1981.03C1509.46 1981.28 1508.48 1981.52 1507.5 1981.52H1223.83C1220.39 1981.52 1217.44 1980.79 1215.23 1979.31C1214.5 1980.05 1213.52 1980.79 1212.78 1981.52C1205.9 1987.91 1212.53 1997 1223.83 1997H1507.5C1513.15 1997 1516.83 1990.61 1513.88 1986.19C1512.66 1984.22 1511.43 1982.5 1510.2 1981.03Z" fill="#D1D1D1"/>
<path d="M1212.78 1981.52C1250.11 1946.4 1321.82 1928.96 1391.82 1934.37C1451.75 1938.79 1496.2 1959.17 1513.64 1986.19C1516.59 1990.86 1512.9 1997 1507.25 1997H1223.58C1212.53 1997 1205.9 1987.91 1212.78 1981.52Z" stroke="#00354C" stroke-width="6" stroke-miterlimit="10" stroke-linecap="round" stroke-linejoin="round"/>
<path d="M1708.89 1186.52C1704.22 1138.62 1680.65 1017.54 1654.12 932.81C1611.88 797.485 1562.27 762.118 1533.53 758.434C1530.58 757.943 1524.2 757.943 1524.2 757.943C1524.2 757.943 1518.06 757.943 1514.87 758.434C1486.13 761.873 1436.77 796.994 1394.28 932.565C1367.75 1017.3 1344.42 1138.62 1339.51 1186.76C1328.95 1294.82 1380.77 1354.51 1448.06 1363.1C1467.22 1365.56 1505.04 1365.56 1524.2 1365.56C1543.11 1365.56 1580.93 1365.56 1600.34 1363.1C1667.38 1354.26 1719.45 1294.58 1708.89 1186.52Z" stroke="#00354C" stroke-width="6" stroke-miterlimit="10" stroke-linecap="round" stroke-linejoin="round"/>
<path d="M1529.11 757.452C1529.11 757.452 1614.83 739.278 1638.4 750.33C1662.72 761.627 1706.68 847.833 1688.51 881.48C1660.75 933.056 1579.21 746.4 1529.11 757.452Z" fill="white"/>
<path d="M1529.11 757.452C1529.11 757.452 1614.83 739.278 1638.4 750.33C1662.72 761.627 1706.68 847.833 1688.51 881.48C1660.75 933.056 1579.21 746.4 1529.11 757.452Z" stroke="#00354C" stroke-width="6" stroke-miterlimit="10" stroke-linecap="round" stroke-linejoin="round"/>
<path d="M1368.24 772.925L1486.87 769.486C1486.87 769.486 1376.84 887.866 1326 913.408C1275.16 938.951 1327.23 772.679 1368.24 772.925Z" fill="white"/>
<path d="M1368.24 772.925L1486.87 769.486C1486.87 769.486 1376.84 887.866 1326 913.408C1275.16 938.951 1327.23 772.679 1368.24 772.925Z" stroke="#00354C" stroke-width="6" stroke-miterlimit="10" stroke-linecap="round" stroke-linejoin="round"/>
<path d="M1477.29 1038.66C1484.07 1038.66 1489.57 1031.52 1489.57 1022.7C1489.57 1013.88 1484.07 1006.74 1477.29 1006.74C1470.51 1006.74 1465.01 1013.88 1465.01 1022.7C1465.01 1031.52 1470.51 1038.66 1477.29 1038.66Z" fill="#00354C"/>
<path d="M1580.93 1038.66C1587.71 1038.66 1593.21 1031.52 1593.21 1022.7C1593.21 1013.88 1587.71 1006.74 1580.93 1006.74C1574.15 1006.74 1568.65 1013.88 1568.65 1022.7C1568.65 1031.52 1574.15 1038.66 1580.93 1038.66Z" fill="#00354C"/>
<path d="M1093 2010H2411" stroke="#00354C" stroke-width="20" stroke-miterlimit="10" stroke-linecap="round" stroke-linejoin="round"/>
<path d="M1770.78 923.232C1770.78 936.986 1767.34 945.09 1753.59 945.09C1739.84 945.09 1728.78 939.933 1728.78 926.179C1728.78 912.426 1739.84 901.374 1753.59 901.374C1767.34 901.374 1770.78 909.478 1770.78 923.232Z" fill="#F7BF46"/>
<path d="M1838.38 2013.7C1838.38 2049.1 1898.88 2077.96 1973.44 2077.96C2031.88 2077.96 2081.59 2060.38 2100.38 2035.65L1959.14 2045.83L1838.38 2013.7Z" fill="#D6D6D6"/>
<path d="M2080.98 2010.19C2077.47 2009.46 2073.71 2009.82 2070.43 2011.16C2049.1 2019.52 2011.76 2025.1 1969.32 2025.1C1903 2025.1 1849.3 2011.52 1849.3 1994.79C1849.3 1980 1891.37 1967.63 1947.01 1964.97L1950.89 1944.72C1874.63 1949.45 1816.68 1973.09 1816.68 2001.46C1816.68 2033.22 1889.43 2059.05 1979.14 2059.05C2018.42 2059.05 2054.43 2054.08 2082.56 2045.83C2100.74 2040.38 2099.65 2014.07 2080.98 2010.19Z" fill="#F78A21"/>
<path opacity="0.26" d="M2017.21 2022.55L2075.41 2009.82C2075.41 2009.82 2090.68 2011.4 2093.47 2019.52C2098.32 2033.34 2088.38 2041.83 2088.38 2041.83C2088.38 2041.83 2084.62 2009.82 2017.21 2022.55Z" fill="#9B463D"/>
<path d="M2080.98 2010.19C2077.47 2009.46 2073.71 2009.82 2070.43 2011.16C2049.1 2019.52 2011.76 2025.1 1969.32 2025.1C1903 2025.1 1849.3 2011.52 1849.3 1994.79C1849.3 1980 1891.37 1967.63 1947.01 1964.97L1950.89 1944.72C1874.63 1949.45 1816.68 1973.09 1816.68 2001.46C1816.68 2033.22 1889.43 2059.05 1979.14 2059.05C2018.42 2059.05 2054.43 2054.08 2082.56 2045.83C2100.74 2040.38 2099.65 2014.07 2080.98 2010.19Z" stroke="#A83727" stroke-width="6" stroke-miterlimit="10" stroke-linecap="round" stroke-linejoin="round"/>
<path d="M2069.59 1584.4C2050.19 1578.21 2028.73 1574.7 2006.3 1574.7C1983.99 1574.7 1962.78 1578.09 1943.38 1584.15C1931.62 1556.63 1915.61 1534.2 1898.76 1520.26C1896.09 1518.08 1892.09 1518.81 1890.4 1521.84C1856.81 1582.58 1841.78 1652.05 1848.08 1727.82C1853.9 1812.45 1886.52 1905.44 1917.43 2001.58H2095.41C2126.45 1905.56 2158.7 1813.54 2164.76 1730C2171.43 1653.75 2156.15 1584.03 2121.6 1522.69C2119.9 1519.66 2115.9 1518.93 2113.23 1521.11C2096.74 1535.17 2081.1 1557.24 2069.59 1584.4Z" fill="#F78A21"/>
<path opacity="0.26" d="M2021.21 1698.36C2021.21 1702.85 2014.54 1706.48 2006.18 1706.48C1997.93 1706.48 1991.14 1702.85 1991.14 1698.36L2006.3 1694.97L2021.21 1698.36Z" fill="#9B463D"/>
<path opacity="0.26" d="M2068.37 1999.88C2068.37 1999.88 2068.37 1990.3 2070.19 1982.3C2086.2 1911.14 2075.65 1889.19 2075.65 1889.19L2041.94 2000.12L2068.37 1999.88Z" fill="#9B463D"/>
<path opacity="0.26" d="M1941.68 1999.88C1941.68 1999.88 1941.68 1990.3 1939.86 1982.3C1923.86 1911.14 1934.41 1889.19 1934.41 1889.19L1968.11 2000.12L1941.68 1999.88Z" fill="#9B463D"/>
<path d="M2069.59 1584.4C2050.19 1578.21 2028.73 1574.7 2006.3 1574.7C1983.99 1574.7 1962.78 1578.09 1943.38 1584.15C1931.62 1556.63 1915.61 1534.2 1898.76 1520.26C1896.09 1518.08 1892.09 1518.81 1890.4 1521.84C1856.81 1582.58 1841.78 1652.05 1848.08 1727.82C1853.9 1812.45 1886.52 1905.44 1917.43 2001.58H2095.41C2126.45 1905.56 2158.7 1813.54 2164.76 1730C2171.43 1653.75 2156.15 1584.03 2121.6 1522.69C2119.9 1519.66 2115.9 1518.93 2113.23 1521.11C2096.74 1535.17 2081.1 1557.24 2069.59 1584.4Z" stroke="#A83727" stroke-width="6" stroke-miterlimit="10" stroke-linecap="round" stroke-linejoin="round"/>
<path d="M1955.99 1642.47C1961.34 1642.47 1965.68 1638.13 1965.68 1632.77C1965.68 1627.41 1961.34 1623.07 1955.99 1623.07C1950.63 1623.07 1946.29 1627.41 1946.29 1632.77C1946.29 1638.13 1950.63 1642.47 1955.99 1642.47Z" fill="#A83727"/>
<path d="M2056.61 1642.47C2061.97 1642.47 2066.31 1638.13 2066.31 1632.77C2066.31 1627.41 2061.97 1623.07 2056.61 1623.07C2051.26 1623.07 2046.91 1627.41 2046.91 1632.77C2046.91 1638.13 2051.26 1642.47 2056.61 1642.47Z" fill="#A83727"/>
<path d="M2014.42 1665.38C2009.09 1664.9 2003.75 1664.9 1998.42 1665.38C1995.87 1665.63 1995.02 1668.17 1996.96 1669.51C1998.66 1670.6 2000.36 1671.69 2002.06 1672.9C2004.48 1674.6 2008.48 1674.6 2010.91 1672.9C2012.6 1671.69 2014.3 1670.6 2016 1669.51C2017.82 1668.17 2016.85 1665.63 2014.42 1665.38Z" fill="#A83727"/>
<path d="M2075.41 1892.71C2073.34 1928.47 2056.73 1966.06 2045.34 2001.82C2033.58 2001.82 2006.3 2001.82 2006.3 2001.82L2006.54 1901.07" fill="#F78A21"/>
<path d="M1937.07 1892.71C1939.13 1928.47 1959.38 1966.06 1970.78 2001.82C1982.54 2001.82 2006.18 2001.82 2006.18 2001.82L2005.94 1901.07" fill="#F78A21"/>
<path d="M2028.61 1697.27C2026.43 1698.48 2023.76 1699.21 2021.09 1699.21C2012.97 1699.21 2006.42 1693.27 2006.42 1685.99" stroke="#A83727" stroke-width="6" stroke-miterlimit="10" stroke-linecap="round" stroke-linejoin="round"/>
<path d="M1983.99 1697.27C1986.17 1698.48 1988.84 1699.21 1991.51 1699.21C1999.63 1699.21 2006.18 1693.27 2006.18 1685.99" stroke="#A83727" stroke-width="6" stroke-miterlimit="10" stroke-linecap="round" stroke-linejoin="round"/>
<path d="M2075.41 1892.71C2073.34 1928.47 2053.1 1966.06 2041.7 2001.82C2029.94 2001.82 2006.3 2001.82 2006.3 2001.82L2006.54 1901.07" stroke="#A83727" stroke-width="6" stroke-miterlimit="10" stroke-linecap="round" stroke-linejoin="round"/>
<path d="M1937.07 1892.71C1939.13 1928.47 1955.74 1966.06 1967.14 2001.82C1978.9 2001.82 2006.18 2001.82 2006.18 2001.82L2005.94 1901.07" stroke="#A83727" stroke-width="6" stroke-miterlimit="10" stroke-linecap="round" stroke-linejoin="round"/>
<path opacity="0.26" d="M2087.53 1598.34C2096.5 1570.82 2109.59 1563.79 2109.59 1563.79C2109.59 1563.79 2119.05 1567.3 2119.05 1604.76" fill="#9B463D"/>
<path opacity="0.26" d="M1925.07 1598.34C1916.1 1570.82 1903 1563.79 1903 1563.79C1903 1563.79 1893.55 1567.3 1893.55 1604.76" fill="#9B463D"/>
<path d="M1984.72 1987.27L1987.75 2000.97" stroke="#A83727" stroke-width="6" stroke-miterlimit="10" stroke-linecap="round" stroke-linejoin="round"/>
<path d="M2027.88 1987.27L2024.85 2000.97" stroke="#A83727" stroke-width="6" stroke-miterlimit="10" stroke-linecap="round" stroke-linejoin="round"/>
<g opacity="0.24">
<path opacity="0.24" d="M2060.74 1692.06C2075.41 1695.94 2090.56 1696.66 2105.11 1694.48" stroke="#A83727" stroke-width="2" stroke-miterlimit="10" stroke-linecap="round" stroke-linejoin="round"/>
<path opacity="0.24" d="M2056.61 1701.27C2069.95 1709.76 2083.77 1715.58 2097.11 1718.61" stroke="#A83727" stroke-width="2" stroke-miterlimit="10" stroke-linecap="round" stroke-linejoin="round"/>
<path opacity="0.24" d="M2060.74 1678.96C2072.74 1678.11 2085.1 1674.84 2097.11 1669.14" stroke="#A83727" stroke-width="2" stroke-miterlimit="10" stroke-linecap="round" stroke-linejoin="round"/>
<path opacity="0.24" d="M1951.86 1692.06C1937.19 1695.94 1922.04 1696.66 1907.49 1694.48" stroke="#A83727" stroke-width="2" stroke-miterlimit="10" stroke-linecap="round" stroke-linejoin="round"/>
<path opacity="0.24" d="M1955.99 1701.27C1942.65 1709.76 1928.83 1715.58 1915.49 1718.61" stroke="#A83727" stroke-width="2" stroke-miterlimit="10" stroke-linecap="round" stroke-linejoin="round"/>
<path opacity="0.24" d="M1951.86 1678.96C1939.86 1678.11 1927.49 1674.84 1915.49 1669.14" stroke="#A83727" stroke-width="2" stroke-miterlimit="10" stroke-linecap="round" stroke-linejoin="round"/>
</g>
<path d="M2235.77 1785.78C2199.93 1762.94 2136.72 1722.77 2109.34 1639.27C2090.24 1580.98 2089.85 1507.73 2110.33 1500.83C2134.16 1492.96 2175.71 1577.24 2190.87 1569.95C2202.88 1564.24 2177.87 1512.06 2174.53 1423.64C2172.16 1363.38 2180.83 1311.59 2208 1265.51C2220.41 1244.44 2229.47 1228.88 2239.51 1230.06C2280.67 1234.79 2269.05 1513.63 2312.96 1518.95C2333.64 1521.51 2350.18 1461.45 2373.42 1466.37C2393.11 1470.51 2406.31 1519.15 2409.85 1550.66C2410.05 1552.23 2410.25 1553.41 2410.25 1554.4C2420.49 1656.6 2360.82 1730.25 2340.73 1755.26C2310.6 1792.28 2290.32 1799.77 2274.56 1799.96C2258.02 1799.77 2245.42 1792.09 2235.77 1785.78Z" fill="#299876"/>
<path d="M2225.14 1397.06C2232.03 1469.92 2273.38 1580.79 2279.49 1674.72C2283.43 1735.96 2279.68 1789.92 2273.58 1834.23" stroke="#465172" stroke-width="6" stroke-miterlimit="10" stroke-linecap="round" stroke-linejoin="round"/>
<path d="M2415.17 2002.01H2109.94C2079.22 1947.66 2080.4 1880.9 2112.89 1827.73L2157.79 1754.28H2367.12L2410.64 1822.22C2442.93 1872.43 2446.68 1936.04 2420.88 1989.8L2415.17 2002.01Z" fill="#2359B2"/>
<path d="M2322.61 1564.24C2322.61 1564.24 2321.83 1597.72 2275.75 1641.24" stroke="#465172" stroke-width="6" stroke-miterlimit="10" stroke-linecap="round" stroke-linejoin="round"/>
<path d="M2177.09 1641.24C2177.09 1641.24 2208 1704.26 2281.06 1704.26" stroke="#465172" stroke-width="6" stroke-miterlimit="10" stroke-linecap="round" stroke-linejoin="round"/>
<path opacity="0.67" d="M2336.99 1806.26C2336.99 1806.26 2383.46 1836.59 2383.46 1909.26" stroke="#1E2A54" stroke-width="6" stroke-miterlimit="10" stroke-linecap="round" stroke-linejoin="round"/>
</svg>
